<svg xmlns="http://www.w3.org/2000/svg" viewBox="0 0 520 520"><defs><style>.cls-1{fill:#aa813f;}.cls-2{fill:#331a1d;}</style></defs><g id="Layer_2" data-name="Layer 2"><g id="Layer_1-2" data-name="Layer 1"><circle class="cls-1" cx="260" cy="260" r="260"/><path class="cls-2" d="M45,353.06v.41a.49.49,0,0,1-.11-.26A.29.29,0,0,0,45,353.06Z"/><path class="cls-2" d="M488.93,209.32c-23.22-105-117-183.79-228.93-183.79S54.29,104.31,31.07,209.32a235,235,0,0,0,6.61,125.23c2.13,6.34,4.53,12.58,7.21,18.66a.29.29,0,0,0,.11-.15v.41c1.72,4,3.58,7.94,5.54,11.82.52,1.06,1.07,2.13,1.63,3.18a236.92,236.92,0,0,0,14,23.26c2.62,3.84,5.35,7.61,8.2,11.27a234.2,234.2,0,0,0,370.86.65q4.54-5.82,8.7-11.94a226.66,226.66,0,0,0,13.45-22.3v-.31a0,0,0,0,1,0,0c.72-1.37,1.41-2.42,2.11-3.79,1.79-3.53,3.49-7.11,5.06-10.73a8.89,8.89,0,0,0,.39-.91q4.15-9.39,7.44-19.21a234.63,234.63,0,0,0,6.58-125.12Zm-298-116c5.62-11.61,15.11-17.76,19.62-20.7,7-4.56,12.8-6.24,18.9-8,7.19-2.12,14.6-4.26,23.82-10.82a74.23,74.23,0,0,0,11.1-9.61A75.93,75.93,0,0,0,274.87,54.4C283.7,61.48,291,64.1,298,66.58c6,2.14,11.66,4.14,18.37,9.07,4.34,3.23,13.41,9.87,18.38,21.86,6.17,14.76,2.48,29,.3,37.56-2.79,11-7.67,19.4-12.38,27.56a158.79,158.79,0,0,1-9,13.79,98.68,98.68,0,0,0-39.65-15.91c-2.62-.41-5.3-.74-8-.94v-60a3.74,3.74,0,0,0-7.48,0v59.69a84.57,84.57,0,0,0-10.74.48,98.29,98.29,0,0,0-40.46,13.58A149.58,149.58,0,0,1,199.18,159c-4.2-8.37-8.56-17-10.74-28.21C186.74,122.15,183.92,107.67,190.92,93.28ZM82.82,275.59a46.75,46.75,0,0,1-10.07-13.45,65.9,65.9,0,0,1-4.27-11.25c-2.4-8-2.38-14-2.38-20.38.05-7.46.05-15.18-3.64-25.88a76,76,0,0,0-6.12-13.34,75.91,75.91,0,0,0,12.81-7.21c1-.72,2-1.44,2.93-2.16,7.34-5.71,11.35-11.25,15.25-16.63,3.73-5.15,7.26-10,13.87-15.07a68.18,68.18,0,0,1,9.87-6.45,45.84,45.84,0,0,1,16.26-5.08c15.9-1.7,28.58,5.82,36.15,10.31,9.72,5.78,16.45,12.82,23,19.64a156.77,156.77,0,0,1,10.71,12.49,98.89,98.89,0,0,0-26.42,33.55c-1.12,2.33-2.14,4.71-3,7.15L115.5,206.59a3.74,3.74,0,1,0-2.09,7.18l51.88,15.15a89.7,89.7,0,0,0-2.69,10.74,99.12,99.12,0,0,0,1.64,42.66c-5.28,1.55-10.66,2.81-16,3.82-9.25,1.67-18.82,3.42-30.09,2.37C109.35,287.68,94.64,286.31,82.82,275.59Zm167.81,98.22c-1.49,9.29-3,18.9-7.7,29.17-3.66,8-9.83,21.47-23.82,29.08-11.38,6.16-22.61,5.66-28,5.42-8.35-.37-14-2.37-20.06-4.46-7.06-2.49-14.32-5-25.61-5.08a72.11,72.11,0,0,0-14.65,1.39,75.9,75.9,0,0,0-2.55-14.45c-3-10.55-7.22-16.83-11.34-22.78-.15-.2-.3-.42-.43-.61-3.64-5.21-7.07-10.14-9.66-18.07a75.52,75.52,0,0,1-2.31-8.31,46.39,46.39,0,0,1,0-20.16c3.6-15.61,14.87-25.07,21.61-30.72,8.69-7.3,17.54-11.33,26.07-15.19a147.78,147.78,0,0,1,15.36-6,98.32,98.32,0,0,0,23,36,88.6,88.6,0,0,0,7.59,6.8L175.4,364.89h0l-12.95,16.57a3.72,3.72,0,0,0,.63,5.25,3.75,3.75,0,0,0,5.26-.65l16.58-21.21,19.25-24.61c2.36,1.66,4.82,3.2,7.35,4.64a98.09,98.09,0,0,0,40.81,12.52C252,362.89,251.46,368.36,250.63,373.81ZM180,260a80,80,0,1,1,80,80A80,80,0,0,1,180,260ZM413.79,365.11a63.48,63.48,0,0,1-3,11.25,58.11,58.11,0,0,1-8.32,15.74c-.53.74-1.05,1.5-1.59,2.24-4.36,6.09-8.88,12.36-12.08,23.2A73.41,73.41,0,0,0,386,431.93a77.77,77.77,0,0,0-14.63-1.57c-11.31-.16-18.64,2.31-25.68,4.68-6.06,2-11.75,3.95-20.07,4.19-5,.15-16.68.54-28-5.82-.52-.31-1.05-.59-1.5-.9-.31-.15-.64-.37-.92-.54a4,4,0,0,0-.5-.37c-.07,0-.09,0-.13-.09h-.05l0,0v0h0c-.17-.11-.33-.22-.5-.35h0v0l0,0a1.83,1.83,0,0,0-.22-.13l-.13-.08c-.5-.35-1-.72-1.46-1.09-.2-.16-.42-.35-.59-.51a1.09,1.09,0,0,1-.26-.21l-.2-.16c-.13-.06-.22-.19-.33-.26a.23.23,0,0,1-.06-.09l-.22-.15a.2.2,0,0,1-.09-.11l-.26-.17a.27.27,0,0,0,0-.07l-.44-.41s0,0,0,0l-.05,0a4.12,4.12,0,0,0-.32-.3c-.11-.09-.2-.2-.33-.29l-.17-.19a2.44,2.44,0,0,0-.29-.28l-.15-.18-.11-.09s-.09-.06-.11-.08a3.06,3.06,0,0,0-.35-.37l-.32-.35s-.07-.05-.07-.07c-.24-.28-.5-.54-.72-.8a3.79,3.79,0,0,1-.26-.29l-.41-.48a.23.23,0,0,0-.09-.08c0-.05,0-.05,0-.07v0l-.05-.05s-.06,0-.09-.08-.06-.09-.08-.09-.22-.26-.33-.44-.44-.52-.63-.78a1.13,1.13,0,0,1-.22-.28A72.63,72.63,0,0,1,274.74,405l-.46-1a98.54,98.54,0,0,1-8.72-45.71,98.67,98.67,0,0,0,41-11.92,94.94,94.94,0,0,0,9.35-5.91L335,364.85l14.38,18.4a3.79,3.79,0,0,0,3,1.42,3.83,3.83,0,0,0,2.29-.79,3.74,3.74,0,0,0,.65-5.25l-10.74-13.74L321.89,336c2-1.62,3.94-3.36,5.84-5.19a99,99,0,0,0,23.41-35.47c.54.15,1.11.33,1.68.5s.89.31,1.31.44c.59.2,1.15.37,1.72.57,3.73,1.43,7.19,2.92,10.64,4.55,8.5,4,17.3,8.15,25.83,15.57,6.67,5.77,17.83,15.41,21.19,31.06A45.18,45.18,0,0,1,413.79,365.11Zm43.62-156.88c-3.8,10.66-3.88,18.35-4,25.83,0,6.36-.09,12.36-2.57,20.36A69.21,69.21,0,0,1,446.75,265v0a46.09,46.09,0,0,1-10.53,13.88c-12,10.6-26.64,11.82-35.4,12.54-1.18.08-2.33.15-3.47.19-.37,0-.74,0-1.11,0s-1,0-1.5,0c-7-.11-13.76-1.22-24-2.94l-.2,0-.54-.09A107.67,107.67,0,0,1,359,286c-.54-.15-1-.28-1.5-.45s-.88-.27-1.29-.44-.78-.26-1.15-.41a1.68,1.68,0,0,1-.31-.11c.15-.55.31-1.14.46-1.73a97.86,97.86,0,0,0,1.59-40.74,87.2,87.2,0,0,0-2.42-10.42l61.36-17.91a3.74,3.74,0,0,0-2.09-7.18l-61.58,18c-.92-2.56-1.94-5.06-3.1-7.55A98.14,98.14,0,0,0,323,183.2a158.69,158.69,0,0,1,10.9-12.4c6.52-6.74,13.34-13.69,23.18-19.36,7.6-4.42,20.36-11.81,36.25-9.89,12.86,1.54,21.71,8.48,26,11.81,6.6,5.12,10.05,10,13.73,15.22s7.57,10.68,14.45,16.3c1.09.9,2.25,1.81,3.51,2.7a77.75,77.75,0,0,0,12.76,7.35A75.71,75.71,0,0,0,457.41,208.23Z"/><path class="cls-2" d="M260,520C116.64,520,0,403.36,0,260S116.64,0,260,0,520,116.64,520,260,403.37,520,260,520Zm0-509.1C122.65,10.9,10.9,122.64,10.9,260S122.65,509.1,260,509.1,509.1,397.35,509.1,260,397.35,10.9,260,10.9Z"/></g></g></svg>